<svg xmlns="http://www.w3.org/2000/svg" xmlns:xlink="http://www.w3.org/1999/xlink" width="69" height="39.178" viewBox="0 0 69 39.178"><defs><clipPath id="a"><rect width="69" height="39.178" fill="none"/></clipPath></defs><g clip-path="url(#a)"><path d="M854.589,101.825a1.105,1.105,0,1,1-1.107-1.107,1.082,1.082,0,0,1,1.107,1.107m-2.028,0a.923.923,0,1,0,.921-.928.889.889,0,0,0-.921.928m1.442.271a.576.576,0,0,1-.535.313.558.558,0,0,1-.587-.578.566.566,0,0,1,.593-.584.525.525,0,0,1,.523.338l-.21.058a.307.307,0,0,0-.3-.182.367.367,0,1,0,.31.566Z" transform="translate(-785.589 -92.826)" fill="#ffffff"/><path d="M10.972,433.293h-.016l-.86-3.244H9.029v5.419h.766v-3.925h.016l1.044,3.925h.875v-5.419h-.758Z" transform="translate(-8.321 -396.352)" fill="#ffffff"/><path d="M75.275,430.048H74.029l-.867,5.419h.782l.145-.983h1.047l.147.983h.859Zm-1.078,3.7.4-2.74h.016l.4,2.74Z" transform="translate(-67.429 -396.351)" fill="#ffffff"/><path d="M134.043,430.823h.89v4.645h.851v-4.645h.891v-.775h-2.632Z" transform="translate(-123.54 -396.352)" fill="#ffffff"/><rect width="0.851" height="5.419" transform="translate(15.443 33.697)" fill="#ffffff"/><path d="M240.968,429.26a1.2,1.2,0,0,0-1.293,1.363v2.818a1.295,1.295,0,1,0,2.586,0v-2.818a1.2,1.2,0,0,0-1.294-1.363m.442,4.235c0,.387-.17.534-.442.534s-.441-.147-.441-.534v-2.926c0-.387.171-.534.441-.534s.442.147.442.534Z" transform="translate(-220.895 -395.625)" fill="#ffffff"/><path d="M306.248,433.293h-.016l-.859-3.244H304.3v5.419h.766v-3.925h.016l1.045,3.925h.875v-5.419h-.759Z" transform="translate(-280.461 -396.352)" fill="#ffffff"/><path d="M371.234,431.75c-.557-.487-.727-.782-.727-1.177s.155-.534.426-.534.425.147.425.534v.225h.805v-.17c0-.867-.425-1.362-1.254-1.362s-1.254.5-1.254,1.362a2.1,2.1,0,0,0,.936,1.7c.557.488.728.781.728,1.177s-.171.526-.442.526-.441-.139-.441-.526v-.387h-.8v.333c0,.867.433,1.362,1.269,1.362s1.27-.5,1.27-1.362a2.1,2.1,0,0,0-.937-1.7" transform="translate(-340.669 -395.63)" fill="#ffffff"/><path d="M473.4,429.26a1.2,1.2,0,0,0-1.293,1.363v2.818a1.295,1.295,0,1,0,2.586,0v-2.818a1.2,1.2,0,0,0-1.293-1.363m.442,4.235c0,.387-.17.534-.442.534s-.441-.147-.441-.534v-2.926c0-.387.171-.534.441-.534s.442.147.442.534Z" transform="translate(-435.113 -395.625)" fill="#ffffff"/><path d="M538.68,433.293h-.016l-.859-3.244h-1.068v5.419h.766v-3.925h.016l1.045,3.925h.875v-5.419h-.758Z" transform="translate(-494.68 -396.352)" fill="#ffffff"/><path d="M643.76,435.466h.852v-2.237h1.1v-.774h-1.1v-1.633h1.4v-.775H643.76Z" transform="translate(-593.317 -396.35)" fill="#ffffff"/><rect width="0.851" height="5.419" transform="translate(55.043 33.697)" fill="#ffffff"/><path d="M748.5,433.972c0-.565-.139-.968-.566-1.145v-.016a1.069,1.069,0,0,0,.558-1.091v-.426c0-.836-.38-1.247-1.262-1.247h-1.285v5.419h.851V433.26h.294c.388,0,.558.186.558.689v.852a1.658,1.658,0,0,0,.077.665h.867a1.59,1.59,0,0,1-.093-.658Zm-.859-2.059c0,.434-.193.573-.511.573h-.333v-1.665h.411c.3,0,.433.17.433.557Z" transform="translate(-687.493 -396.35)" fill="#ffffff"/><path d="M812.693,430.823v-.775H810.37v5.419h2.323v-.774h-1.471v-1.587h1.169v-.774h-1.169v-1.51Z" transform="translate(-746.872 -396.352)" fill="#ffffff"/><path d="M63.6,13.522l2.218-4.6h-21.9l.642,2.7v4.293h0C43.556,13.5,40.958,10.977,39.135,9l-.249-.27,0-.005,0-.005c-.317-.364-.658-.715-.989-1.054A10.285,10.285,0,0,1,35.635,4.7a3.4,3.4,0,0,1,.056-3.173,2.985,2.985,0,0,1,1.366-1.2A5.846,5.846,0,0,0,30.273,2.6a6.429,6.429,0,0,0-.17,6.26.492.492,0,0,1-.478.69l-.382-.023c-.483-.03-.982-.061-1.472-.061a5.358,5.358,0,0,0-2.278.4,3.392,3.392,0,0,1,1.592,1.453,2.9,2.9,0,0,1,.054,2.492l-.01.026-.013.024a17.351,17.351,0,0,1-1.321,1.984c-.59.8-1.666,1.563-2.032,2.435V8.926H16.677l.643,2.7v8.825L6.476,8.926H0l.644,2.7V28.8H7.079V17.1l.331.339h0l.029.036L18.164,28.8h9.36c-.277-1.575-.1-3.966,2.082-6.818,3.715-4.753,3.737-8.672,3.6-10.036a.266.266,0,0,1,.422-.215A6.931,6.931,0,0,1,34.957,12.9a8.907,8.907,0,0,1,2.192,5.738,8.008,8.008,0,0,0,.433,2.773c.626,1.428,1.662.769,1.44-1.745a.267.267,0,0,1,.434-.2A8.4,8.4,0,0,1,41.98,23.3a10.618,10.618,0,0,1,.777,4.328,8.175,8.175,0,0,1-.139,1.165H51.1V22.271h8.329l2.266-4.7H51.1V13.522Z" fill="#ffffff"/></g></svg>