<svg xmlns="http://www.w3.org/2000/svg" width="304.555" height="825.576" viewBox="0 0 304.555 825.576">
  <path id="Wydarzenia_zewnętrzne" data-name="Wydarzenia 
zewnętrzne" d="M721.9,6.882H744.07V27.144H721.9Zm21.167,1H722.9V26.144H743.07Zm-735-.341H33.079l.089.387L47.456,69.769l2.6,14.52L52.7,70.132,64.935,7.541H89.558l12.9,62.222,2.814,14.7,2.8-14.057L122.591,7.541h23.983l-.179.635L115.9,116.5H93.578l-.082-.4L80.456,52.955,77.139,34.777,73.82,52.966,60.7,116.5H38.968l-.1-.364Zm24.214,1H9.392L39.724,115.5H59.886L72.84,52.769,76.647,31.9h.984l3.807,20.868L94.392,115.5h20.747L145.253,8.541H123.386L109.049,70.622l-3.294,16.545-.982,0-3.3-17.209L88.744,8.541H65.759L53.68,70.319,50.531,87.161l-.984,0-3.074-17.2Zm257.344-.854h22.167V116.5H290.506v-9.886a28.928,28.928,0,0,1-9.435,9.089c-3.867,2.181-8.73,3.287-14.455,3.287a29.978,29.978,0,0,1-13.1-2.878,32.97,32.97,0,0,1-10.831-8.615,39.1,39.1,0,0,1-7.262-13.084,52.1,52.1,0,0,1-2.415-16.279,65.813,65.813,0,0,1,2.373-18.4,40.418,40.418,0,0,1,7.149-14.07,31.261,31.261,0,0,1,11.174-8.929,33.8,33.8,0,0,1,14.374-2.977,26.358,26.358,0,0,1,13.137,3.251,25.8,25.8,0,0,1,8.409,7.607Zm21.167,1H290.627V48.021l-.924-1.483a24.975,24.975,0,0,0-8.977-8.655,25.374,25.374,0,0,0-12.645-3.121,32.809,32.809,0,0,0-13.952,2.883,30.27,30.27,0,0,0-10.817,8.649,39.427,39.427,0,0,0-6.969,13.725,64.822,64.822,0,0,0-2.333,18.115A51.106,51.106,0,0,0,236.376,94.1a38.1,38.1,0,0,0,7.076,12.752,31.977,31.977,0,0,0,10.5,8.359,28.986,28.986,0,0,0,12.665,2.78c5.55,0,10.248-1.063,13.963-3.158a29.089,29.089,0,0,0,10-10.158l.923-1.468V115.5h19.288ZM578.555,33.542a42.525,42.525,0,0,1,18.156,3.783,30.488,30.488,0,0,1,7.409,4.9A34.749,34.749,0,0,1,610.1,49.3h0a40.914,40.914,0,0,1,6.154,16.677,107.4,107.4,0,0,1,.664,15.9l-.007.493H562.3a26.558,26.558,0,0,0,2.04,9.513,15.023,15.023,0,0,0,5.263,6.419,18.866,18.866,0,0,0,15.8,2.029,12.937,12.937,0,0,0,4.461-2.645,16.987,16.987,0,0,0,3.767-5.339l.136-.284h22.188l-.063.556a21.4,21.4,0,0,1-2.3,7.331,35.219,35.219,0,0,1-5.215,7.372h0a33.058,33.058,0,0,1-12.492,8.867,44.06,44.06,0,0,1-16.594,2.948,40.985,40.985,0,0,1-27.2-9.932A30.434,30.434,0,0,1,543.2,96.1a56.43,56.43,0,0,1-2.942-19.214,59.073,59.073,0,0,1,2.653-18.468,36.011,36.011,0,0,1,8-13.664,34.949,34.949,0,0,1,12.25-8.414A40.824,40.824,0,0,1,578.555,33.542Zm37.373,47.827a104.291,104.291,0,0,0-.661-15.248,39.921,39.921,0,0,0-6-16.277l0,0a33.749,33.749,0,0,0-5.809-6.875,29.492,29.492,0,0,0-7.166-4.735,41.535,41.535,0,0,0-17.732-3.688,39.829,39.829,0,0,0-15.019,2.728,33.955,33.955,0,0,0-11.9,8.176,35.02,35.02,0,0,0-7.77,13.289,58.083,58.083,0,0,0-2.6,18.154,55.443,55.443,0,0,0,2.881,18.872,29.448,29.448,0,0,0,8.587,12.68,39.985,39.985,0,0,0,26.558,9.7,43.068,43.068,0,0,0,16.218-2.875,32.065,32.065,0,0,0,12.117-8.6l0,0a34.24,34.24,0,0,0,5.072-7.163,20.726,20.726,0,0,0,2.128-6.431H594.4a17.671,17.671,0,0,1-3.86,5.365,15.515,15.515,0,0,1-10.808,3.79,18.337,18.337,0,0,1-10.686-3.092,16,16,0,0,1-5.609-6.835,28.03,28.03,0,0,1-2.149-10.4l-.019-.518ZM361.685,33.762a57.457,57.457,0,0,1,12.487,1.312A46.554,46.554,0,0,1,385.2,39.017a17.711,17.711,0,0,1,7.852,7.722,26.727,26.727,0,0,1,2.6,12.352V95.712c0,2.518.049,5.616.146,9.207.141,2.624.53,4.407,1.155,5.3a7.029,7.029,0,0,0,2.877,2.25l.289.134v3.9H376.579l-.125-.317a23.856,23.856,0,0,1-1.346-4.639c-.195-1.127-.36-2.391-.493-3.769a43.712,43.712,0,0,1-9.309,7.265,32.557,32.557,0,0,1-25.547,2.375,24.494,24.494,0,0,1-8.177-4.738,20.065,20.065,0,0,1-5.435-7.669,27.378,27.378,0,0,1-1.8-10.249,27.252,27.252,0,0,1,2.9-12.924,22.312,22.312,0,0,1,8.7-8.822c4.19-2.416,10.414-4.162,18.5-5.191l7.106-.879a32.316,32.316,0,0,0,8.136-1.792l.006,0c2.8-1.194,4.164-2.984,4.164-5.473a8.719,8.719,0,0,0-.8-3.923,5.567,5.567,0,0,0-2.348-2.414c-2.185-1.2-5.468-1.806-9.757-1.806a18.832,18.832,0,0,0-6.152.888,8.837,8.837,0,0,0-3.937,2.594,14.811,14.811,0,0,0-2.821,7.083l-.067.422h-21.1l.034-.531a37.357,37.357,0,0,1,1.82-9.669,26.963,26.963,0,0,1,4.143-7.816,25.522,25.522,0,0,1,11.465-8.073A50.241,50.241,0,0,1,361.685,33.762Zm37.439,79.476a7.814,7.814,0,0,1-2.986-2.444c-.745-1.065-1.182-2.97-1.335-5.826v-.013c-.1-3.6-.147-6.713-.147-9.242V59.091A25.751,25.751,0,0,0,392.168,47.2a16.73,16.73,0,0,0-7.419-7.292,45.552,45.552,0,0,0-10.795-3.857,56.466,56.466,0,0,0-12.269-1.288,49.262,49.262,0,0,0-17,2.605,24.535,24.535,0,0,0-11.023,7.75,25.961,25.961,0,0,0-3.985,7.525,35.951,35.951,0,0,0-1.732,8.879h19.183a15.461,15.461,0,0,1,2.964-7.139l.006-.007a9.819,9.819,0,0,1,4.374-2.9,19.814,19.814,0,0,1,6.482-.944c4.459,0,7.9.649,10.238,1.929,2.432,1.334,3.665,3.761,3.665,7.213,0,2.891-1.6,5.041-4.768,6.391a32.692,32.692,0,0,1-8.414,1.869l-7.106.879c-7.951,1.012-14.049,2.716-18.122,5.064a21.325,21.325,0,0,0-8.323,8.426,26.269,26.269,0,0,0-2.78,12.454,26.388,26.388,0,0,0,1.731,9.875,19.071,19.071,0,0,0,5.166,7.291,23.5,23.5,0,0,0,7.845,4.545,29.781,29.781,0,0,0,9.734,1.52,32.171,32.171,0,0,0,7.933-.955,27.948,27.948,0,0,0,7.052-2.86,42.581,42.581,0,0,0,9.843-7.889l.774-.839.092,1.138c.145,1.784.34,3.4.58,4.789a22.441,22.441,0,0,0,1.168,4.126h21.863Zm57.922-79.476c.4,0,.752.013,1.034.039.261.024.858.06,1.775.108l.474.025v22.42l-.555-.062c-1.3-.145-2.475-.242-3.484-.29s-1.842-.073-2.466-.073a23.674,23.674,0,0,0-10.31,2,13.445,13.445,0,0,0-6.166,5.936c-1.565,2.988-2.359,7.691-2.359,13.976V116.5H412.967V35.666h20.922V48.32c2.86-4.544,5.415-7.748,7.606-9.537a20.451,20.451,0,0,1,6.9-3.77A28.249,28.249,0,0,1,457.046,33.762Zm2.283,1.12c-.672-.037-1.112-.065-1.34-.086-.252-.023-.57-.035-.944-.035a27.253,27.253,0,0,0-8.343,1.2,19.457,19.457,0,0,0-6.571,3.588l0,0c-2.337,1.908-5.133,5.536-8.311,10.785l-.928,1.532V36.666H413.967V115.5h20.021V77.841c0-6.448.832-11.307,2.474-14.441a14.426,14.426,0,0,1,6.615-6.37,24.648,24.648,0,0,1,10.747-2.1c.64,0,1.486.025,2.514.074.884.042,1.888.121,2.992.236Zm215.393-1.12a37.453,37.453,0,0,1,11.4,1.644,27.542,27.542,0,0,1,9.165,4.952,20.193,20.193,0,0,1,6.057,8.829,38.206,38.206,0,0,1,2,13.053V116.5H680.96V67.44c0-4.1-.549-7.279-1.632-9.444a9.779,9.779,0,0,0-4.253-4.4,15.052,15.052,0,0,0-7.019-1.481,16.312,16.312,0,0,0-8.691,2.177,14.092,14.092,0,0,0-5.426,6.532,30.605,30.605,0,0,0-2.009,11.957V116.5h-21.8V35.812h21.142V46.318a33.272,33.272,0,0,1,6.816-7.622,23.484,23.484,0,0,1,7.465-3.706A32.373,32.373,0,0,1,674.722,33.762ZM702.347,115.5V62.24a37.224,37.224,0,0,0-1.938-12.709,19.209,19.209,0,0,0-5.754-8.4,26.547,26.547,0,0,0-8.834-4.771,36.461,36.461,0,0,0-11.1-1.6,31.38,31.38,0,0,0-8.885,1.188,22.487,22.487,0,0,0-7.148,3.546,35.137,35.137,0,0,0-7.5,8.736l-.918,1.4V36.812H631.13V115.5h19.8V72.787a31.573,31.573,0,0,1,2.092-12.356,15.072,15.072,0,0,1,5.818-6.984,17.288,17.288,0,0,1,9.217-2.327c5.94,0,10.033,2.163,12.166,6.429,1.153,2.306,1.737,5.634,1.737,9.891V115.5Zm92.858-81.738a57.457,57.457,0,0,1,12.487,1.312,46.554,46.554,0,0,1,11.031,3.943,17.711,17.711,0,0,1,7.852,7.722,26.726,26.726,0,0,1,2.6,12.352V95.712c0,2.518.049,5.616.146,9.207.141,2.624.53,4.407,1.155,5.3a7.029,7.029,0,0,0,2.877,2.25l.289.134v3.9H810.1l-.125-.317a23.856,23.856,0,0,1-1.346-4.639c-.195-1.127-.36-2.391-.493-3.769a43.712,43.712,0,0,1-9.309,7.265,32.557,32.557,0,0,1-25.547,2.375,24.494,24.494,0,0,1-8.177-4.738,20.065,20.065,0,0,1-5.435-7.669,27.378,27.378,0,0,1-1.8-10.249,27.252,27.252,0,0,1,2.9-12.924,22.312,22.312,0,0,1,8.7-8.822c4.19-2.416,10.414-4.162,18.5-5.191l7.106-.879a32.315,32.315,0,0,0,8.136-1.792l.006,0c2.8-1.194,4.164-2.984,4.164-5.473a8.719,8.719,0,0,0-.8-3.923,5.567,5.567,0,0,0-2.348-2.414c-2.185-1.2-5.468-1.806-9.757-1.806a18.832,18.832,0,0,0-6.152.888,8.837,8.837,0,0,0-3.937,2.594,14.811,14.811,0,0,0-2.821,7.083l-.067.422H760.4l.034-.531a37.355,37.355,0,0,1,1.82-9.669,26.963,26.963,0,0,1,4.143-7.816,25.522,25.522,0,0,1,11.464-8.073A50.241,50.241,0,0,1,795.206,33.762Zm37.439,79.476a7.814,7.814,0,0,1-2.986-2.444c-.745-1.065-1.182-2.971-1.335-5.826v-.013c-.1-3.6-.147-6.713-.147-9.242V59.091A25.751,25.751,0,0,0,825.688,47.2a16.73,16.73,0,0,0-7.419-7.292,45.551,45.551,0,0,0-10.795-3.857,56.466,56.466,0,0,0-12.269-1.288,49.262,49.262,0,0,0-17,2.605,24.535,24.535,0,0,0-11.023,7.75,25.962,25.962,0,0,0-3.985,7.525,35.951,35.951,0,0,0-1.732,8.879h19.183a15.46,15.46,0,0,1,2.964-7.139l.005-.007a9.819,9.819,0,0,1,4.374-2.9,19.814,19.814,0,0,1,6.482-.944c4.459,0,7.9.649,10.238,1.929,2.432,1.334,3.665,3.761,3.665,7.213,0,2.891-1.6,5.041-4.768,6.391a32.692,32.692,0,0,1-8.414,1.869l-7.106.879c-7.951,1.012-14.049,2.716-18.122,5.064a21.325,21.325,0,0,0-8.323,8.426,26.27,26.27,0,0,0-2.779,12.454,26.389,26.389,0,0,0,1.731,9.875,19.072,19.072,0,0,0,5.167,7.291,23.5,23.5,0,0,0,7.845,4.545,29.78,29.78,0,0,0,9.733,1.52,32.171,32.171,0,0,0,7.933-.955,27.949,27.949,0,0,0,7.052-2.86,42.581,42.581,0,0,0,9.843-7.889l.774-.839.092,1.138c.145,1.784.34,3.4.58,4.789a22.444,22.444,0,0,0,1.168,4.126h21.863ZM146.307,35.666h24.3l17.045,57.58,16.114-57.58h23.276l-.232.665-27.393,78.516c-2.629,7.546-5.018,13.747-7.1,18.431-2.1,4.715-3.952,8.042-5.513,9.888a14.521,14.521,0,0,1-7.161,4.249,42.045,42.045,0,0,1-11.677,1.385c-1.85,0-3.357-.012-4.479-.037s-2.831-.111-5.075-.257l-.468-.03v-17.7l3.164.176c.571.027,1.147.041,1.706.041a31.268,31.268,0,0,0,4.06-.257,10.076,10.076,0,0,0,4.468-1.6c1.134-.771,2.219-2.444,3.226-4.974,1.388-3.486,1.328-4.313,1.273-4.487Zm23.55,1H147.718l29.065,82.691c.163.49.164,1.521-1.292,5.177-1.1,2.757-2.272,4.533-3.589,5.429a11.056,11.056,0,0,1-4.9,1.767,32.266,32.266,0,0,1-4.191.266c-.575,0-1.167-.014-1.758-.043l-2.113-.117v15.7c2,.127,3.534.2,4.565.225,1.114.024,2.614.036,4.457.036a41.071,41.071,0,0,0,11.394-1.344,13.554,13.554,0,0,0,6.681-3.936c3.022-3.574,7.206-13,12.434-28L225.63,36.666H204.52L187.675,96.86Zm297.163-1h65.746V53.715l-.127.142-39.759,44.5h41.277V116.5H464.237V99.552l.124-.142,40.213-45.752H467.02Zm64.746,1H468.02V52.658h38.764l-.73.83L465.237,99.929V115.5h67.921V99.361H490.646l41.12-46.028Zm190.137-1H744.07V116.5H721.9Zm21.167,1H722.9V115.5H743.07ZM578.555,50.754a16.131,16.131,0,0,1,11.514,4.422,15.26,15.26,0,0,1,3.626,5.459,24.1,24.1,0,0,1,1.545,7.433l.033.531H561.725l.075-.566c.694-5.251,2.422-9.48,5.137-12.569C569.685,52.339,573.594,50.754,578.555,50.754ZM594.205,67.6a22.641,22.641,0,0,0-1.438-6.593A14.266,14.266,0,0,0,589.38,55.9a14.706,14.706,0,0,0-4.879-3.109,17.934,17.934,0,0,0-12.195.061,12.153,12.153,0,0,0-4.618,3.272c-2.485,2.827-4.1,6.686-4.818,11.475ZM272.769,52a16.478,16.478,0,0,1,10.868,3.925,19.66,19.66,0,0,1,5.7,8.6,38.523,38.523,0,0,1,1.878,12.728,37.065,37.065,0,0,1-1.171,9.634,24.579,24.579,0,0,1-3.534,7.718,15.4,15.4,0,0,1-5.866,5.106,18.119,18.119,0,0,1-8.02,1.7,17.491,17.491,0,0,1-7.953-1.72,14.521,14.521,0,0,1-5.647-5.168h0a25.01,25.01,0,0,1-3.365-7.865A41.929,41.929,0,0,1,254.544,76.6a39.571,39.571,0,0,1,1.086-9.542,27.7,27.7,0,0,1,3.273-7.9,14.474,14.474,0,0,1,5.7-5.372A17.694,17.694,0,0,1,272.769,52Zm-.146,48.413a17.132,17.132,0,0,0,7.581-1.6,14.413,14.413,0,0,0,5.486-4.781,23.587,23.587,0,0,0,3.388-7.406,36.071,36.071,0,0,0,1.136-9.373,37.542,37.542,0,0,0-1.821-12.395,18.672,18.672,0,0,0-5.4-8.172,15.7,15.7,0,0,0-4.753-2.767,16.057,16.057,0,0,0-5.47-.922,16.711,16.711,0,0,0-7.709,1.675,13.49,13.49,0,0,0-5.306,5.01A26.705,26.705,0,0,0,256.6,67.3a38.575,38.575,0,0,0-1.056,9.3,40.938,40.938,0,0,0,1.084,9.822,24.015,24.015,0,0,0,3.227,7.552l0,.005a13.536,13.536,0,0,0,5.263,4.824A16.5,16.5,0,0,0,272.623,100.412Zm102.16-24.136v8.68a25.432,25.432,0,0,1-1.621,9.023,12.785,12.785,0,0,1-4.489,5.806,21.845,21.845,0,0,1-12.7,4.045,11.443,11.443,0,0,1-7.491-2.527c-2.116-1.655-3.19-4.374-3.19-8.08a10.083,10.083,0,0,1,5.08-9.293c1.947-1.148,5.182-2.13,9.615-2.918l4.683-.878a33.066,33.066,0,0,0,5.443-1.4,22.291,22.291,0,0,0,3.9-1.97Zm-1,8.663V78.069a22.777,22.777,0,0,1-3.313,1.594,34,34,0,0,1-5.616,1.453l-4.687.879c-4.32.768-7.443,1.708-9.286,2.8a9.077,9.077,0,0,0-3.441,3.452,10.294,10.294,0,0,0-1.147,4.979,12.2,12.2,0,0,0,.717,4.414,6.651,6.651,0,0,0,2.094,2.882l.011.008a10.468,10.468,0,0,0,6.86,2.3,20.791,20.791,0,0,0,6.321-.965,21.7,21.7,0,0,0,5.808-2.9,11.8,11.8,0,0,0,4.135-5.364A24.445,24.445,0,0,0,373.783,84.939ZM808.3,76.276v8.68a25.433,25.433,0,0,1-1.621,9.023,12.785,12.785,0,0,1-4.489,5.806,21.845,21.845,0,0,1-12.7,4.045A11.443,11.443,0,0,1,782,101.3c-2.116-1.655-3.19-4.374-3.19-8.08a10.083,10.083,0,0,1,5.08-9.293c1.947-1.148,5.182-2.13,9.615-2.918l4.683-.878a33.071,33.071,0,0,0,5.444-1.4,22.294,22.294,0,0,0,3.9-1.97Zm-1,8.663V78.069a22.777,22.777,0,0,1-3.313,1.594,34.013,34.013,0,0,1-5.616,1.453l-4.687.879c-4.32.768-7.443,1.708-9.286,2.8a9.076,9.076,0,0,0-3.441,3.452,10.294,10.294,0,0,0-1.147,4.979,12.2,12.2,0,0,0,.716,4.414,6.651,6.651,0,0,0,2.094,2.882l.011.008a10.468,10.468,0,0,0,6.86,2.3,20.791,20.791,0,0,0,6.321-.965,21.7,21.7,0,0,0,5.808-2.9,11.8,11.8,0,0,0,4.135-5.364A24.443,24.443,0,0,0,807.3,84.939ZM480.057,174.133h21.654V196.4h12.964v15.868H501.711v41.688c0,3.881.595,5.273,1.093,5.757.411.4,1.9,1.067,7.269,1.067.626,0,1.3-.012,2-.036s1.395-.061,2.069-.109l.536-.038v16.619l-10.369.384c-.825.029-1.639.043-2.419.043a40.172,40.172,0,0,1-11.016-1.312,15.867,15.867,0,0,1-7.159-4.011,11.807,11.807,0,0,1-2.753-4.754,22.121,22.121,0,0,1-.9-6.652V212.267H468.924V196.4h11.133Zm20.654,1H481.057V197.4H469.924v13.868h11.133v49.646c0,4.822,1.135,8.425,3.373,10.71a14.9,14.9,0,0,0,6.72,3.747,39.194,39.194,0,0,0,10.737,1.273c.769,0,1.571-.014,2.384-.042l9.4-.348V261.666c-.517.032-1.043.057-1.57.075-.71.024-1.394.037-2.031.037-4.486,0-7.017-.429-7.965-1.35s-1.4-3.03-1.4-6.475V211.267h12.964V197.4H500.711ZM133.975,193.542a42.525,42.525,0,0,1,18.156,3.783,30.49,30.49,0,0,1,7.409,4.9,34.748,34.748,0,0,1,5.983,7.078h0a40.915,40.915,0,0,1,6.154,16.677,107.394,107.394,0,0,1,.664,15.9l-.007.493h-54.61a26.559,26.559,0,0,0,2.04,9.513,15.023,15.023,0,0,0,5.263,6.419,18.867,18.867,0,0,0,15.8,2.029,12.937,12.937,0,0,0,4.461-2.645,16.989,16.989,0,0,0,3.767-5.339l.136-.284h22.188l-.063.556a21.4,21.4,0,0,1-2.3,7.331,35.23,35.23,0,0,1-5.215,7.372h0a33.058,33.058,0,0,1-12.492,8.867,44.06,44.06,0,0,1-16.594,2.948,40.985,40.985,0,0,1-27.2-9.932,30.433,30.433,0,0,1-8.882-13.1,56.428,56.428,0,0,1-2.942-19.214,59.073,59.073,0,0,1,2.653-18.467,36.01,36.01,0,0,1,8-13.664,34.947,34.947,0,0,1,12.25-8.414A40.824,40.824,0,0,1,133.975,193.542Zm37.373,47.827a104.277,104.277,0,0,0-.66-15.248,39.92,39.92,0,0,0-6-16.277l0,0a33.752,33.752,0,0,0-5.809-6.875,29.492,29.492,0,0,0-7.166-4.735,41.535,41.535,0,0,0-17.732-3.688,39.83,39.83,0,0,0-15.019,2.728,33.955,33.955,0,0,0-11.9,8.176,35.02,35.02,0,0,0-7.77,13.289,58.084,58.084,0,0,0-2.6,18.154,55.448,55.448,0,0,0,2.881,18.872,29.448,29.448,0,0,0,8.587,12.68,39.987,39.987,0,0,0,26.558,9.7,43.068,43.068,0,0,0,16.218-2.875,32.066,32.066,0,0,0,12.117-8.6l0,0a34.24,34.24,0,0,0,5.072-7.163,20.727,20.727,0,0,0,2.128-6.431H149.815a17.672,17.672,0,0,1-3.86,5.365,15.515,15.515,0,0,1-10.808,3.79,18.337,18.337,0,0,1-10.686-3.092,16,16,0,0,1-5.609-6.835,28.031,28.031,0,0,1-2.149-10.4l-.019-.518ZM425.7,193.542a42.526,42.526,0,0,1,18.156,3.783,30.49,30.49,0,0,1,7.409,4.9,34.746,34.746,0,0,1,5.983,7.078h0a40.917,40.917,0,0,1,6.154,16.677,107.415,107.415,0,0,1,.664,15.9l-.007.493h-54.61a26.559,26.559,0,0,0,2.04,9.513,15.023,15.023,0,0,0,5.263,6.419,18.867,18.867,0,0,0,15.8,2.029,12.936,12.936,0,0,0,4.461-2.645,16.987,16.987,0,0,0,3.767-5.339l.136-.284H463.1l-.063.556a21.4,21.4,0,0,1-2.3,7.331,35.227,35.227,0,0,1-5.215,7.372h0a33.066,33.066,0,0,1-8.735,7.07,36.6,36.6,0,0,1-10.841,3.878l-2.92,2.092a51.045,51.045,0,0,0-7.393,6.23,8.026,8.026,0,0,0-2.286,5.522,5.917,5.917,0,0,0,2.23,4.92,8.841,8.841,0,0,0,5.693,1.831,13.449,13.449,0,0,0,3.248-.425c1.151-.288,2.491-.7,3.982-1.231l.667-.237v11.6l-.323.122a46.022,46.022,0,0,1-5.556,1.777,38.955,38.955,0,0,1-9.049.965,22.219,22.219,0,0,1-7.156-1.1,17.088,17.088,0,0,1-5.771-3.31,13.674,13.674,0,0,1-5.078-10.594,14.717,14.717,0,0,1,1.591-6.632,21.181,21.181,0,0,1,4.724-6.041,47.434,47.434,0,0,1,7.123-5.13,40.332,40.332,0,0,1-10.13-2.938,42.817,42.817,0,0,1-10.308-6.488,30.434,30.434,0,0,1-8.882-13.1,56.429,56.429,0,0,1-2.942-19.214,59.073,59.073,0,0,1,2.653-18.467,36.01,36.01,0,0,1,7.995-13.664,34.949,34.949,0,0,1,12.25-8.414A40.824,40.824,0,0,1,425.7,193.542Zm37.373,47.827a104.3,104.3,0,0,0-.66-15.248,39.923,39.923,0,0,0-6-16.277l0,0a33.746,33.746,0,0,0-5.809-6.875,29.489,29.489,0,0,0-7.166-4.735,41.536,41.536,0,0,0-17.732-3.688,39.829,39.829,0,0,0-15.019,2.728,33.956,33.956,0,0,0-11.9,8.176,35.021,35.021,0,0,0-7.77,13.289,58.083,58.083,0,0,0-2.6,18.154,55.445,55.445,0,0,0,2.881,18.872,29.448,29.448,0,0,0,8.587,12.68,41.816,41.816,0,0,0,10.067,6.338,39.5,39.5,0,0,0,11.092,3.033c.992-.585,2.061-1.193,3.181-1.81l.113-.062h14.869l-1.167.836a34.656,34.656,0,0,0,8.269-3.257,32.069,32.069,0,0,0,8.471-6.857l0,0a34.242,34.242,0,0,0,5.072-7.163,20.724,20.724,0,0,0,2.128-6.431H441.539a17.674,17.674,0,0,1-3.86,5.365,15.515,15.515,0,0,1-10.808,3.79,18.338,18.338,0,0,1-10.686-3.092,16,16,0,0,1-5.609-6.835,28.031,28.031,0,0,1-2.149-10.4l-.019-.518Zm-26.991,35.57h-11.5c-.639.352-1.26.7-1.86,1.046,1.219.1,2.46.152,3.709.152a49.154,49.154,0,0,0,9.106-.808Zm-4.816,22.925a9.814,9.814,0,0,1-6.319-2.051,6.948,6.948,0,0,1-2.6-5.7,9,9,0,0,1,2.548-6.2,52.008,52.008,0,0,1,7.546-6.366l1.263-.9a52.04,52.04,0,0,1-7.269.491,45.452,45.452,0,0,1-5.181-.293,50.143,50.143,0,0,0-8.03,5.654,20.192,20.192,0,0,0-4.505,5.751,13.725,13.725,0,0,0-1.485,6.185,12.147,12.147,0,0,0,1.178,5.3,14.3,14.3,0,0,0,3.559,4.536,16.1,16.1,0,0,0,5.435,3.117,21.226,21.226,0,0,0,6.834,1.045,37.972,37.972,0,0,0,8.819-.938,43.672,43.672,0,0,0,5.11-1.618v-9.5c-1.257.43-2.4.775-3.407,1.026A14.454,14.454,0,0,1,431.265,299.864ZM784.073,193.542a42.526,42.526,0,0,1,18.156,3.783,30.491,30.491,0,0,1,7.409,4.9,34.746,34.746,0,0,1,5.983,7.078h0a40.917,40.917,0,0,1,6.154,16.677,107.419,107.419,0,0,1,.664,15.9l-.007.493h-54.61a26.561,26.561,0,0,0,2.04,9.513,15.023,15.023,0,0,0,5.263,6.419,18.867,18.867,0,0,0,15.8,2.029,12.937,12.937,0,0,0,4.461-2.645,16.986,16.986,0,0,0,3.767-5.339l.136-.284h22.188l-.063.556a21.4,21.4,0,0,1-2.3,7.331,35.226,35.226,0,0,1-5.215,7.372h0a33.059,33.059,0,0,1-12.492,8.867,44.06,44.06,0,0,1-16.594,2.948,40.985,40.985,0,0,1-27.2-9.932,30.434,30.434,0,0,1-8.882-13.1,56.429,56.429,0,0,1-2.942-19.214,59.073,59.073,0,0,1,2.653-18.467,36.009,36.009,0,0,1,7.995-13.664,34.948,34.948,0,0,1,12.25-8.414A40.824,40.824,0,0,1,784.073,193.542Zm37.373,47.827a104.293,104.293,0,0,0-.66-15.248,39.922,39.922,0,0,0-6-16.277l0,0a33.752,33.752,0,0,0-5.809-6.875,29.491,29.491,0,0,0-7.166-4.735,41.535,41.535,0,0,0-17.732-3.688,39.83,39.83,0,0,0-15.019,2.728,33.956,33.956,0,0,0-11.9,8.176,35.022,35.022,0,0,0-7.77,13.289,58.083,58.083,0,0,0-2.6,18.154,55.445,55.445,0,0,0,2.881,18.872,29.448,29.448,0,0,0,8.587,12.68,39.987,39.987,0,0,0,26.558,9.7,43.068,43.068,0,0,0,16.218-2.875,32.065,32.065,0,0,0,12.117-8.6l0,0a34.242,34.242,0,0,0,5.072-7.163,20.724,20.724,0,0,0,2.128-6.431H799.913a17.675,17.675,0,0,1-3.86,5.365,15.516,15.516,0,0,1-10.808,3.79,18.337,18.337,0,0,1-10.686-3.092,16,16,0,0,1-5.609-6.835,28.03,28.03,0,0,1-2.149-10.4l-.019-.518ZM346.817,193.762a37.454,37.454,0,0,1,11.4,1.644,27.543,27.543,0,0,1,9.165,4.952,20.193,20.193,0,0,1,6.057,8.829,38.205,38.205,0,0,1,2,13.053V276.5H353.055V227.44c0-4.1-.549-7.279-1.632-9.444a9.779,9.779,0,0,0-4.253-4.4,15.052,15.052,0,0,0-7.018-1.481,16.312,16.312,0,0,0-8.691,2.177,14.091,14.091,0,0,0-5.426,6.532,30.606,30.606,0,0,0-2.009,11.957V276.5h-21.8V195.812h21.142v10.506a33.268,33.268,0,0,1,6.816-7.622,23.486,23.486,0,0,1,7.465-3.706A32.374,32.374,0,0,1,346.817,193.762ZM374.442,275.5V222.24a37.224,37.224,0,0,0-1.938-12.71,19.209,19.209,0,0,0-5.753-8.4,26.548,26.548,0,0,0-8.834-4.771,36.46,36.46,0,0,0-11.1-1.6,31.379,31.379,0,0,0-8.885,1.188,22.488,22.488,0,0,0-7.148,3.546,35.139,35.139,0,0,0-7.5,8.736l-.918,1.4V196.812H303.225V275.5h19.8V232.787a31.573,31.573,0,0,1,2.092-12.356,15.073,15.073,0,0,1,5.818-6.984,17.288,17.288,0,0,1,9.217-2.327c5.94,0,10.033,2.163,12.166,6.429,1.153,2.306,1.737,5.634,1.737,9.891V275.5Zm196.5-81.738c.4,0,.752.013,1.034.039.261.024.858.06,1.775.108l.474.025v22.42l-.555-.062c-1.3-.145-2.475-.242-3.484-.29s-1.842-.073-2.466-.073a23.674,23.674,0,0,0-10.31,2,13.445,13.445,0,0,0-6.166,5.936c-1.565,2.988-2.359,7.691-2.359,13.976V276.5H526.859V195.666h20.922V208.32c2.86-4.544,5.415-7.748,7.606-9.537a20.451,20.451,0,0,1,6.9-3.77A28.249,28.249,0,0,1,570.938,193.762Zm2.283,1.12c-.672-.037-1.112-.065-1.34-.086-.252-.023-.569-.035-.943-.035a27.253,27.253,0,0,0-8.343,1.2,19.456,19.456,0,0,0-6.571,3.588l0,0c-2.337,1.908-5.133,5.536-8.311,10.785l-.928,1.532V196.666H527.859V275.5h20.021V237.841c0-6.448.832-11.307,2.474-14.441a14.425,14.425,0,0,1,6.615-6.37,24.648,24.648,0,0,1,10.747-2.1c.64,0,1.486.025,2.514.074.884.042,1.888.121,2.992.236Zm131.97-1.12a37.454,37.454,0,0,1,11.4,1.644,27.543,27.543,0,0,1,9.165,4.952,20.193,20.193,0,0,1,6.057,8.829,38.206,38.206,0,0,1,2,13.053V276.5H711.429V227.44c0-4.1-.549-7.279-1.632-9.444a9.779,9.779,0,0,0-4.253-4.4,15.052,15.052,0,0,0-7.018-1.481,16.312,16.312,0,0,0-8.691,2.177,14.091,14.091,0,0,0-5.426,6.532,30.6,30.6,0,0,0-2.009,11.957V276.5H660.6V195.812h21.142v10.506a33.268,33.268,0,0,1,6.816-7.622,23.486,23.486,0,0,1,7.465-3.706A32.374,32.374,0,0,1,705.191,193.762ZM732.816,275.5V222.24a37.224,37.224,0,0,0-1.938-12.71,19.209,19.209,0,0,0-5.753-8.4,26.547,26.547,0,0,0-8.834-4.771,36.461,36.461,0,0,0-11.1-1.6,31.38,31.38,0,0,0-8.885,1.188,22.488,22.488,0,0,0-7.148,3.546,35.137,35.137,0,0,0-7.5,8.736l-.918,1.4V196.812H661.6V275.5h19.8V232.787a31.573,31.573,0,0,1,2.092-12.356,15.073,15.073,0,0,1,5.818-6.984,17.288,17.288,0,0,1,9.217-2.327c5.94,0,10.033,2.163,12.166,6.429,1.153,2.306,1.737,5.634,1.737,9.891V275.5ZM22.44,195.666H88.186v18.049l-.127.142L48.3,258.361H89.578V276.5H19.657V259.552l.124-.142,40.213-45.752H22.44Zm64.746,1H23.44v15.992H62.2l-.729.83L20.657,259.929V275.5H88.578V259.361H46.066l41.12-46.028Zm89.342-1H200l.086.394L212.032,251l11.109-55.332h21.982l.084.4,11.675,55.209,12.042-55.606h22.822L268.311,276.5H246.071l-12.123-56.293L221.683,276.5H199.221l-.1-.365Zm22.669,1H177.848L199.979,275.5h20.9l12.585-57.761h.977l12.439,57.76H267.56l22.855-78.834H269.73l-12.366,57.1-.978,0-12.074-57.1H223.96L212.542,253.54l-.979.008Zm381.715-1h65.746v18.049l-.127.142-39.759,44.5h41.277V276.5H578.128V259.552l.124-.142,40.213-45.752H580.912Zm64.746,1H581.912v15.992h38.764l-.729.83-40.818,46.441V275.5h67.921V259.361H604.538l41.12-46.028ZM133.975,210.754a16.131,16.131,0,0,1,11.514,4.422,15.259,15.259,0,0,1,3.626,5.459,24.106,24.106,0,0,1,1.545,7.433l.033.531H117.145l.075-.565c.694-5.251,2.422-9.48,5.137-12.569C125.1,212.339,129.014,210.754,133.975,210.754Zm15.65,16.846a22.647,22.647,0,0,0-1.438-6.593A14.268,14.268,0,0,0,144.8,215.9a14.7,14.7,0,0,0-4.879-3.109,17.934,17.934,0,0,0-12.195.061,12.154,12.154,0,0,0-4.618,3.272c-2.485,2.827-4.1,6.686-4.818,11.475ZM425.7,210.754a16.132,16.132,0,0,1,11.514,4.422,15.26,15.26,0,0,1,3.626,5.459,24.1,24.1,0,0,1,1.545,7.433l.033.531H408.869l.075-.565c.694-5.252,2.422-9.48,5.137-12.569C416.828,212.339,420.737,210.754,425.7,210.754Zm15.65,16.846a22.642,22.642,0,0,0-1.439-6.593,14.266,14.266,0,0,0-3.387-5.106,14.706,14.706,0,0,0-4.879-3.109,17.934,17.934,0,0,0-12.195.061,12.153,12.153,0,0,0-4.618,3.272c-2.485,2.827-4.1,6.685-4.817,11.475Zm342.724-16.846a16.131,16.131,0,0,1,11.514,4.422,15.261,15.261,0,0,1,3.626,5.459,24.1,24.1,0,0,1,1.545,7.433l.033.531H767.243l.075-.565c.694-5.252,2.422-9.48,5.137-12.569C775.2,212.339,779.111,210.754,784.073,210.754Zm15.65,16.846a22.641,22.641,0,0,0-1.438-6.593A14.266,14.266,0,0,0,794.9,215.9a14.706,14.706,0,0,0-4.879-3.109,17.934,17.934,0,0,0-12.195.061,12.153,12.153,0,0,0-4.618,3.272c-2.485,2.827-4.1,6.685-4.818,11.475Z" transform="translate(311.437 -8.069) rotate(90)" fill="#262626" opacity="0.103"/>
</svg>
