<svg xmlns="http://www.w3.org/2000/svg" width="272.401" height="825.576" viewBox="0 0 272.401 825.576">
  <path id="Wydarzenia_autorskie" data-name="Wydarzenia 
autorskie" d="M715.369,6.882h22.167V27.145H715.369Zm21.167,1H716.369V26.145h20.167Zm-735-.341H26.545l.089.387L40.922,69.769l2.6,14.52,2.647-14.158L58.4,7.541H83.024l12.9,62.222,2.814,14.7,2.8-14.057L116.057,7.541H140.04l-.179.635L109.363,116.5H87.044l-.082-.4L73.922,52.955,70.605,34.777,67.287,52.966,54.167,116.5H32.435l-.1-.364Zm24.214,1H2.859L33.19,115.5H53.352L66.306,52.769,70.114,31.9H71.1L74.9,52.769,87.859,115.5h20.747L138.72,8.541H116.853L102.515,70.622,99.221,87.167l-.982,0-3.3-17.208L82.21,8.541H59.225L47.146,70.32,44,87.161l-.984,0-3.074-17.2Zm257.344-.853h22.167V116.5H283.973v-9.886a28.93,28.93,0,0,1-9.435,9.089c-3.867,2.181-8.73,3.287-14.455,3.287a29.978,29.978,0,0,1-13.1-2.878,32.968,32.968,0,0,1-10.831-8.615,39.1,39.1,0,0,1-7.262-13.084,52.1,52.1,0,0,1-2.415-16.279,65.814,65.814,0,0,1,2.373-18.4A40.418,40.418,0,0,1,236,45.667a31.261,31.261,0,0,1,11.174-8.929,33.8,33.8,0,0,1,14.374-2.976,26.359,26.359,0,0,1,13.137,3.251,25.8,25.8,0,0,1,8.409,7.607Zm21.167,1H284.094V48.021l-.924-1.483a24.976,24.976,0,0,0-8.977-8.655,25.375,25.375,0,0,0-12.645-3.121A32.809,32.809,0,0,0,247.6,37.645a30.27,30.27,0,0,0-10.817,8.649,39.427,39.427,0,0,0-6.969,13.725,64.822,64.822,0,0,0-2.333,18.115A51.106,51.106,0,0,0,229.842,94.1a38.1,38.1,0,0,0,7.076,12.752,31.977,31.977,0,0,0,10.5,8.359,28.986,28.986,0,0,0,12.665,2.78c5.55,0,10.248-1.062,13.963-3.158a29.09,29.09,0,0,0,10-10.158l.923-1.468V115.5h19.288ZM572.021,33.542a42.528,42.528,0,0,1,18.156,3.782,30.491,30.491,0,0,1,7.409,4.9A34.744,34.744,0,0,1,603.57,49.3h0a40.916,40.916,0,0,1,6.154,16.677,107.4,107.4,0,0,1,.664,15.9l-.007.493h-54.61a26.558,26.558,0,0,0,2.04,9.513,15.022,15.022,0,0,0,5.263,6.419,18.865,18.865,0,0,0,15.8,2.029,12.937,12.937,0,0,0,4.461-2.645,16.986,16.986,0,0,0,3.767-5.339l.136-.284h22.188l-.063.556a21.4,21.4,0,0,1-2.3,7.331,35.219,35.219,0,0,1-5.215,7.372h0a33.058,33.058,0,0,1-12.492,8.867,44.06,44.06,0,0,1-16.594,2.948,40.986,40.986,0,0,1-27.2-9.932,30.433,30.433,0,0,1-8.882-13.1,56.43,56.43,0,0,1-2.942-19.214,59.073,59.073,0,0,1,2.653-18.468,36.012,36.012,0,0,1,8-13.664,34.948,34.948,0,0,1,12.25-8.414A40.824,40.824,0,0,1,572.021,33.542Zm37.373,47.827a104.29,104.29,0,0,0-.661-15.248,39.922,39.922,0,0,0-6-16.277l0,0a33.743,33.743,0,0,0-5.809-6.875,29.489,29.489,0,0,0-7.166-4.735,41.537,41.537,0,0,0-17.732-3.688A39.829,39.829,0,0,0,557,37.27a33.954,33.954,0,0,0-11.9,8.176,35.021,35.021,0,0,0-7.77,13.289,58.082,58.082,0,0,0-2.6,18.154A55.443,55.443,0,0,0,537.61,95.76a29.447,29.447,0,0,0,8.587,12.68,39.987,39.987,0,0,0,26.558,9.7,43.068,43.068,0,0,0,16.218-2.875,32.065,32.065,0,0,0,12.117-8.6l0,0a34.24,34.24,0,0,0,5.072-7.163,20.726,20.726,0,0,0,2.128-6.431H587.862A17.672,17.672,0,0,1,584,98.427a15.515,15.515,0,0,1-10.808,3.791,18.336,18.336,0,0,1-10.686-3.092,16,16,0,0,1-5.609-6.835,28.031,28.031,0,0,1-2.149-10.4l-.019-.518ZM355.151,33.762a57.457,57.457,0,0,1,12.487,1.312,46.553,46.553,0,0,1,11.031,3.943,17.711,17.711,0,0,1,7.852,7.722,26.727,26.727,0,0,1,2.6,12.352V95.712c0,2.518.049,5.616.146,9.207.141,2.624.53,4.407,1.155,5.3a7.03,7.03,0,0,0,2.877,2.25l.289.134v3.9H370.045l-.125-.317a23.856,23.856,0,0,1-1.346-4.639c-.195-1.128-.36-2.391-.493-3.769a43.715,43.715,0,0,1-9.309,7.265,32.557,32.557,0,0,1-25.547,2.375,24.494,24.494,0,0,1-8.177-4.738,20.064,20.064,0,0,1-5.435-7.669,27.38,27.38,0,0,1-1.8-10.249,27.252,27.252,0,0,1,2.9-12.924,22.312,22.312,0,0,1,8.7-8.822c4.19-2.415,10.413-4.162,18.5-5.191l7.106-.879a32.322,32.322,0,0,0,8.136-1.792l.006,0c2.8-1.194,4.164-2.984,4.164-5.473a8.719,8.719,0,0,0-.8-3.923,5.567,5.567,0,0,0-2.348-2.414c-2.185-1.2-5.468-1.806-9.757-1.806a18.832,18.832,0,0,0-6.152.887,8.837,8.837,0,0,0-3.937,2.594,14.812,14.812,0,0,0-2.821,7.083l-.067.422h-21.1l.034-.531a37.355,37.355,0,0,1,1.82-9.669,26.963,26.963,0,0,1,4.142-7.817A25.52,25.52,0,0,1,337.8,36.43,50.241,50.241,0,0,1,355.151,33.762Zm37.439,79.476a7.814,7.814,0,0,1-2.986-2.444c-.745-1.064-1.182-2.97-1.335-5.826v-.013c-.1-3.6-.147-6.713-.147-9.242V59.091A25.751,25.751,0,0,0,385.634,47.2a16.73,16.73,0,0,0-7.419-7.292A45.551,45.551,0,0,0,367.42,36.05a56.467,56.467,0,0,0-12.269-1.288,49.262,49.262,0,0,0-17,2.605,24.535,24.535,0,0,0-11.023,7.75,25.961,25.961,0,0,0-3.985,7.525,35.953,35.953,0,0,0-1.732,8.879h19.183a15.46,15.46,0,0,1,2.964-7.139l.006-.007a9.82,9.82,0,0,1,4.374-2.9,19.814,19.814,0,0,1,6.482-.943c4.459,0,7.9.649,10.238,1.929,2.432,1.334,3.665,3.761,3.665,7.213,0,2.892-1.6,5.043-4.771,6.392a32.717,32.717,0,0,1-8.411,1.867l-7.106.879c-7.951,1.012-14.049,2.716-18.122,5.064a21.325,21.325,0,0,0-8.323,8.426,26.269,26.269,0,0,0-2.78,12.454,26.388,26.388,0,0,0,1.731,9.875,19.071,19.071,0,0,0,5.167,7.29,23.5,23.5,0,0,0,7.845,4.545,29.781,29.781,0,0,0,9.734,1.52,32.171,32.171,0,0,0,7.933-.955,27.944,27.944,0,0,0,7.052-2.86,42.583,42.583,0,0,0,9.843-7.889l.774-.839.092,1.138c.145,1.784.34,3.395.58,4.789a22.441,22.441,0,0,0,1.168,4.126h21.863Zm57.922-79.476c.4,0,.752.013,1.034.039.26.024.857.06,1.776.109l.474.025v22.42l-.555-.062c-1.3-.145-2.473-.242-3.484-.291s-1.843-.073-2.466-.073a23.674,23.674,0,0,0-10.31,2,13.445,13.445,0,0,0-6.166,5.935c-1.565,2.989-2.359,7.691-2.359,13.976V116.5H406.434V35.666h20.922V48.32c2.86-4.544,5.414-7.748,7.606-9.537a20.45,20.45,0,0,1,6.9-3.77A28.249,28.249,0,0,1,450.513,33.762Zm2.283,1.12c-.673-.037-1.113-.065-1.34-.086-.252-.023-.57-.035-.944-.035a27.253,27.253,0,0,0-8.343,1.2,19.457,19.457,0,0,0-6.571,3.588l0,0c-2.337,1.908-5.133,5.536-8.311,10.785l-.928,1.532V36.666H407.434V115.5h20.021V77.841c0-6.448.832-11.307,2.474-14.441a14.425,14.425,0,0,1,6.615-6.37,24.648,24.648,0,0,1,10.747-2.1c.64,0,1.486.025,2.514.074.885.042,1.89.121,2.992.236Zm215.393-1.12a37.453,37.453,0,0,1,11.4,1.644,27.54,27.54,0,0,1,9.165,4.952,20.193,20.193,0,0,1,6.057,8.829,38.206,38.206,0,0,1,2,13.053V116.5H674.427V67.44c0-4.1-.549-7.279-1.632-9.444a9.779,9.779,0,0,0-4.253-4.4,15.052,15.052,0,0,0-7.019-1.481,16.312,16.312,0,0,0-8.691,2.178,14.09,14.09,0,0,0-5.426,6.532A30.6,30.6,0,0,0,645.4,72.787V116.5H623.6V35.813h21.142V46.318a33.266,33.266,0,0,1,6.816-7.622,23.486,23.486,0,0,1,7.465-3.706A32.376,32.376,0,0,1,668.188,33.762ZM695.813,115.5V62.24a37.224,37.224,0,0,0-1.938-12.71,19.209,19.209,0,0,0-5.754-8.4,26.545,26.545,0,0,0-8.834-4.771,36.46,36.46,0,0,0-11.1-1.6A31.383,31.383,0,0,0,659.3,35.95a22.488,22.488,0,0,0-7.148,3.546,35.133,35.133,0,0,0-7.5,8.736l-.918,1.4V36.813H624.6V115.5h19.8V72.787a31.572,31.572,0,0,1,2.092-12.356,15.072,15.072,0,0,1,5.818-6.984,17.287,17.287,0,0,1,9.217-2.327c5.94,0,10.033,2.163,12.166,6.429,1.153,2.306,1.737,5.634,1.737,9.892V115.5Zm92.858-81.738a57.457,57.457,0,0,1,12.487,1.312,46.554,46.554,0,0,1,11.031,3.943,17.711,17.711,0,0,1,7.852,7.722,26.726,26.726,0,0,1,2.6,12.352V95.712c0,2.518.049,5.616.146,9.207.141,2.624.53,4.407,1.155,5.3a7.03,7.03,0,0,0,2.877,2.25l.289.134v3.9H803.566l-.125-.317a23.856,23.856,0,0,1-1.346-4.639c-.195-1.128-.36-2.391-.493-3.769a43.716,43.716,0,0,1-9.309,7.265,32.557,32.557,0,0,1-25.547,2.375,24.494,24.494,0,0,1-8.177-4.738,20.064,20.064,0,0,1-5.435-7.669,27.379,27.379,0,0,1-1.8-10.249,27.252,27.252,0,0,1,2.9-12.924,22.312,22.312,0,0,1,8.7-8.822c4.19-2.415,10.413-4.162,18.5-5.191l7.106-.879a32.322,32.322,0,0,0,8.136-1.792l.006,0c2.8-1.194,4.164-2.984,4.164-5.473a8.719,8.719,0,0,0-.8-3.923A5.567,5.567,0,0,0,797.7,53.34c-2.185-1.2-5.468-1.806-9.757-1.806a18.832,18.832,0,0,0-6.152.887,8.837,8.837,0,0,0-3.937,2.594A14.812,14.812,0,0,0,775.03,62.1l-.067.422h-21.1l.034-.531a37.355,37.355,0,0,1,1.82-9.669,26.964,26.964,0,0,1,4.143-7.817,25.52,25.52,0,0,1,11.464-8.073A50.241,50.241,0,0,1,788.672,33.762Zm37.439,79.476a7.814,7.814,0,0,1-2.986-2.444c-.745-1.064-1.182-2.97-1.335-5.826v-.013c-.1-3.6-.147-6.713-.147-9.242V59.091A25.75,25.75,0,0,0,819.154,47.2a16.73,16.73,0,0,0-7.419-7.292,45.55,45.55,0,0,0-10.795-3.858,56.467,56.467,0,0,0-12.269-1.288,49.262,49.262,0,0,0-17,2.605,24.535,24.535,0,0,0-11.023,7.75,25.961,25.961,0,0,0-3.985,7.525,35.951,35.951,0,0,0-1.732,8.879h19.183a15.46,15.46,0,0,1,2.964-7.139l.005-.007a9.82,9.82,0,0,1,4.374-2.9,19.814,19.814,0,0,1,6.482-.943c4.459,0,7.9.649,10.238,1.929,2.432,1.334,3.665,3.761,3.665,7.213,0,2.892-1.6,5.043-4.771,6.392a32.718,32.718,0,0,1-8.411,1.867l-7.106.879c-7.951,1.012-14.049,2.716-18.122,5.064a21.325,21.325,0,0,0-8.323,8.426,26.269,26.269,0,0,0-2.779,12.454,26.389,26.389,0,0,0,1.731,9.875,19.071,19.071,0,0,0,5.167,7.29,23.5,23.5,0,0,0,7.845,4.545,29.78,29.78,0,0,0,9.733,1.52,32.171,32.171,0,0,0,7.933-.955,27.944,27.944,0,0,0,7.052-2.86,42.581,42.581,0,0,0,9.843-7.889l.774-.839.092,1.138c.145,1.784.34,3.395.58,4.789a22.443,22.443,0,0,0,1.168,4.126h21.863ZM139.773,35.666h24.3l17.045,57.58,16.114-57.58H220.5l-.232.665-27.393,78.516c-2.629,7.546-5.018,13.747-7.1,18.431-2.1,4.715-3.952,8.042-5.513,9.888a14.52,14.52,0,0,1-7.161,4.249,42.04,42.04,0,0,1-11.677,1.385c-1.85,0-3.357-.012-4.479-.037s-2.834-.111-5.075-.257l-.468-.03v-17.7l3.164.176c.571.027,1.147.041,1.706.041a31.265,31.265,0,0,0,4.06-.257,10.077,10.077,0,0,0,4.468-1.6c1.134-.771,2.219-2.444,3.226-4.974,1.388-3.486,1.328-4.313,1.273-4.487Zm23.55,1H141.184l29.065,82.691c.163.49.164,1.521-1.292,5.177-1.1,2.757-2.272,4.533-3.589,5.429a11.058,11.058,0,0,1-4.9,1.767,32.259,32.259,0,0,1-4.191.266c-.575,0-1.167-.014-1.758-.042l-2.113-.117v15.7c2,.127,3.532.2,4.565.225,1.114.024,2.614.036,4.457.036a41.071,41.071,0,0,0,11.394-1.344,13.555,13.555,0,0,0,6.681-3.936c3.022-3.574,7.206-13,12.434-28L219.1,36.666H197.987L181.141,96.86Zm297.163-1h65.746V53.715l-.127.142-39.759,44.5h41.277V116.5H457.7V99.552l.124-.142L498.04,53.658H460.486Zm64.746,1H461.486V52.658h38.764l-.73.83L458.7,99.929V115.5h67.921V99.361H484.112l41.12-46.028Zm190.137-1h22.167V116.5H715.369Zm21.167,1H716.369V115.5h20.167ZM572.021,50.754a16.131,16.131,0,0,1,11.514,4.422,15.26,15.26,0,0,1,3.626,5.459,24.1,24.1,0,0,1,1.545,7.433l.033.531H555.191l.075-.566c.694-5.251,2.422-9.48,5.137-12.569C563.151,52.339,567.06,50.754,572.021,50.754ZM587.672,67.6a22.641,22.641,0,0,0-1.438-6.593,14.266,14.266,0,0,0-3.387-5.106,14.706,14.706,0,0,0-4.879-3.109,17.934,17.934,0,0,0-12.195.061,12.153,12.153,0,0,0-4.618,3.272c-2.485,2.827-4.1,6.685-4.818,11.475ZM266.235,52A16.477,16.477,0,0,1,277.1,55.925a19.659,19.659,0,0,1,5.7,8.6,38.523,38.523,0,0,1,1.878,12.728,37.065,37.065,0,0,1-1.171,9.634,24.579,24.579,0,0,1-3.534,7.718,15.4,15.4,0,0,1-5.866,5.106,18.119,18.119,0,0,1-8.02,1.7,17.489,17.489,0,0,1-7.953-1.72,14.52,14.52,0,0,1-5.647-5.168h0a25.01,25.01,0,0,1-3.365-7.865A41.928,41.928,0,0,1,248.011,76.6a39.571,39.571,0,0,1,1.086-9.542,27.7,27.7,0,0,1,3.273-7.9,14.474,14.474,0,0,1,5.7-5.372A17.7,17.7,0,0,1,266.235,52Zm-.146,48.413a17.132,17.132,0,0,0,7.581-1.6,14.414,14.414,0,0,0,5.486-4.781,23.587,23.587,0,0,0,3.388-7.406,36.072,36.072,0,0,0,1.136-9.373,37.542,37.542,0,0,0-1.821-12.395,18.672,18.672,0,0,0-5.4-8.172,15.7,15.7,0,0,0-4.753-2.767,16.057,16.057,0,0,0-5.47-.922,16.711,16.711,0,0,0-7.709,1.675,13.488,13.488,0,0,0-5.306,5.01,26.7,26.7,0,0,0-3.154,7.612,38.577,38.577,0,0,0-1.056,9.3,40.937,40.937,0,0,0,1.084,9.822,24.015,24.015,0,0,0,3.227,7.552l0,.005a13.537,13.537,0,0,0,5.263,4.825A16.5,16.5,0,0,0,266.089,100.412Zm102.16-24.136v8.68a25.432,25.432,0,0,1-1.621,9.023,12.785,12.785,0,0,1-4.489,5.806,21.845,21.845,0,0,1-12.7,4.045,11.444,11.444,0,0,1-7.491-2.527c-2.116-1.655-3.19-4.374-3.19-8.08a10.083,10.083,0,0,1,5.08-9.293c1.947-1.148,5.182-2.13,9.615-2.918l4.683-.878a33.077,33.077,0,0,0,5.443-1.4,22.281,22.281,0,0,0,3.9-1.97Zm-1,8.664V78.069a22.772,22.772,0,0,1-3.313,1.594,34.018,34.018,0,0,1-5.616,1.452l-4.688.879c-4.32.768-7.443,1.708-9.286,2.8a9.076,9.076,0,0,0-3.441,3.452,10.3,10.3,0,0,0-1.147,4.979,12.2,12.2,0,0,0,.717,4.414,6.65,6.65,0,0,0,2.094,2.882l.011.008a10.469,10.469,0,0,0,6.86,2.3,20.791,20.791,0,0,0,6.321-.965,21.708,21.708,0,0,0,5.808-2.9A11.8,11.8,0,0,0,365.7,93.6,24.446,24.446,0,0,0,367.249,84.939Zm434.52-8.664v8.68a25.433,25.433,0,0,1-1.621,9.023,12.785,12.785,0,0,1-4.489,5.806,21.845,21.845,0,0,1-12.7,4.045,11.444,11.444,0,0,1-7.491-2.527c-2.116-1.655-3.19-4.374-3.19-8.08a10.083,10.083,0,0,1,5.08-9.293c1.947-1.148,5.182-2.13,9.615-2.918l4.683-.878a33.082,33.082,0,0,0,5.444-1.4,22.284,22.284,0,0,0,3.9-1.97Zm-1,8.664V78.069a22.77,22.77,0,0,1-3.313,1.594,34.009,34.009,0,0,1-5.616,1.452l-4.688.879c-4.32.768-7.443,1.708-9.286,2.8a9.076,9.076,0,0,0-3.441,3.452,10.3,10.3,0,0,0-1.147,4.979,12.2,12.2,0,0,0,.716,4.414,6.65,6.65,0,0,0,2.094,2.882l.011.008a10.469,10.469,0,0,0,6.86,2.3,20.791,20.791,0,0,0,6.321-.965,21.708,21.708,0,0,0,5.808-2.9,11.8,11.8,0,0,0,4.135-5.364A24.444,24.444,0,0,0,800.769,84.939ZM551.38,166.882h22.167v20.263H551.38Zm21.167,1H552.38v18.263h20.167Zm-105.1.025h21.508V225.22l25.273-29.188h27.217l-28.42,31.106L542.284,276.5H515.918l-18.93-33.8-8.036,8.377V276.5H467.444Zm20.508,1H468.444V275.5h19.508V250.677l.139-.145,9.11-9.5.33.589L516.5,275.5h24.025l-28.745-48.49.25-.274,27.14-29.7H514.682L487.952,227.9ZM187.22,174.133h21.654V196.4h12.964v15.868H208.874v41.688c0,3.881.595,5.273,1.093,5.757.411.4,1.9,1.067,7.269,1.067.626,0,1.3-.012,2-.036s1.393-.061,2.069-.109l.536-.038v16.619l-10.369.384c-.825.029-1.639.043-2.419.043a40.174,40.174,0,0,1-11.016-1.312,15.869,15.869,0,0,1-7.159-4.011,11.807,11.807,0,0,1-2.753-4.754,22.123,22.123,0,0,1-.9-6.652V212.267H176.087V196.4H187.22Zm20.654,1H188.22V197.4H177.087v13.868H188.22v49.645c0,4.822,1.135,8.425,3.373,10.71a14.9,14.9,0,0,0,6.72,3.747,39.192,39.192,0,0,0,10.737,1.273c.769,0,1.571-.014,2.383-.042l9.4-.348V261.666c-.518.032-1.044.057-1.57.075-.71.025-1.394.037-2.031.037-4.486,0-7.017-.429-7.965-1.35s-1.4-3.03-1.4-6.475V211.267h12.964V197.4H207.874ZM270.63,193.1a47.554,47.554,0,0,1,18.154,3.206,31.875,31.875,0,0,1,12.926,9.653,45.92,45.92,0,0,1,7.663,13.976,50.876,50.876,0,0,1,2.553,16.292,51.605,51.605,0,0,1-2.553,16.465,44.706,44.706,0,0,1-7.666,13.916,31.842,31.842,0,0,1-12.926,9.514,53.729,53.729,0,0,1-36.3,0,31.841,31.841,0,0,1-12.926-9.514,44.7,44.7,0,0,1-7.666-13.916,51.6,51.6,0,0,1-2.553-16.465,50.876,50.876,0,0,1,2.553-16.292,45.919,45.919,0,0,1,7.663-13.976,31.875,31.875,0,0,1,12.926-9.653A47.554,47.554,0,0,1,270.63,193.1Zm0,85.181A47.182,47.182,0,0,0,288.4,275.2a30.853,30.853,0,0,0,12.526-9.217,43.707,43.707,0,0,0,7.5-13.605,50.608,50.608,0,0,0,2.5-16.146,49.879,49.879,0,0,0-2.5-15.972,44.924,44.924,0,0,0-7.5-13.673,30.885,30.885,0,0,0-12.526-9.353,52.019,52.019,0,0,0-35.544,0,30.886,30.886,0,0,0-12.526,9.353,44.919,44.919,0,0,0-7.5,13.673,49.878,49.878,0,0,0-2.5,15.972,50.61,50.61,0,0,0,2.5,16.146,43.7,43.7,0,0,0,7.5,13.605,30.852,30.852,0,0,0,12.526,9.217A47.182,47.182,0,0,0,270.63,278.283ZM415.356,193.4a58.231,58.231,0,0,1,13.686,1.5,37.011,37.011,0,0,1,10.969,4.512,21.632,21.632,0,0,1,7.557,8.359,34.433,34.433,0,0,1,3.442,12.672l.052.547H429.19l-.049-.446a11.931,11.931,0,0,0-2.163-6.113,9.931,9.931,0,0,0-4.432-3.029,20.421,20.421,0,0,0-6.9-1.032c-4.411,0-7.577.682-9.409,2.027a5.6,5.6,0,0,0-2.689,4.578,4.946,4.946,0,0,0,2.808,4.757l.008,0c2,1.1,9.274,3.025,21.62,5.736l.007,0a55.423,55.423,0,0,1,10.995,3.715,30.138,30.138,0,0,1,7.913,5.272l0,0a20.561,20.561,0,0,1,4.728,6.925,22.176,22.176,0,0,1,1.575,8.448,26.307,26.307,0,0,1-2.251,10.983,25.294,25.294,0,0,1-6.75,8.77,29.532,29.532,0,0,1-11.425,5.732A61.672,61.672,0,0,1,416.6,279.21a60.645,60.645,0,0,1-16.5-2.006,29.59,29.59,0,0,1-11.629-6.066,26.818,26.818,0,0,1-6.855-9.208,28.007,28.007,0,0,1-2.286-11.418v-.5h22.111l.052.441c.424,3.585,1.341,6.151,2.725,7.627,2.479,2.666,7.185,4.017,13.991,4.017a21.507,21.507,0,0,0,9.552-1.777,5.643,5.643,0,0,0,.656-9.969c-1.9-1.186-9.166-3.284-21.6-6.236h-.005a72.907,72.907,0,0,1-11.635-3.818,28.657,28.657,0,0,1-7.7-4.72,16.154,16.154,0,0,1-4.3-6.269,23.392,23.392,0,0,1-1.425-8.457,25.061,25.061,0,0,1,2.215-10.489,27.746,27.746,0,0,1,6.627-8.886,28.738,28.738,0,0,1,10.629-6.067A45.862,45.862,0,0,1,415.356,193.4Zm34.6,26.587a32.989,32.989,0,0,0-3.278-11.757,20.643,20.643,0,0,0-7.205-7.977,36.013,36.013,0,0,0-10.67-4.385,57.231,57.231,0,0,0-13.45-1.469,44.87,44.87,0,0,0-13.825,1.962,27.746,27.746,0,0,0-10.263,5.853,26.753,26.753,0,0,0-6.392,8.564,24.07,24.07,0,0,0-2.125,10.074,22.4,22.4,0,0,0,1.358,8.1,15.166,15.166,0,0,0,4.042,5.887c3.634,3.3,9.991,6.094,18.9,8.309h0c12.72,3.019,19.884,5.1,21.9,6.361a6.642,6.642,0,0,1-.735,11.71,22.461,22.461,0,0,1-10,1.885,32.666,32.666,0,0,1-8.965-1.064,12.434,12.434,0,0,1-5.756-3.271c-1.471-1.57-2.457-4.176-2.931-7.751H380.338a26.821,26.821,0,0,0,2.2,10.513,25.827,25.827,0,0,0,6.6,8.865,28.6,28.6,0,0,0,11.241,5.854A59.656,59.656,0,0,0,416.6,278.21a60.682,60.682,0,0,0,15.917-1.859,28.545,28.545,0,0,0,11.042-5.529,24.3,24.3,0,0,0,6.488-8.423,25.316,25.316,0,0,0,2.161-10.568,21.18,21.18,0,0,0-1.5-8.068,19.564,19.564,0,0,0-4.5-6.588,29.152,29.152,0,0,0-7.647-5.089,54.422,54.422,0,0,0-10.789-3.644c-12.609-2.769-19.767-4.678-21.882-5.834a5.941,5.941,0,0,1-3.338-5.64,6.61,6.61,0,0,1,3.1-5.384,10.719,10.719,0,0,1,4.062-1.678,28.282,28.282,0,0,1,5.939-.543,21.4,21.4,0,0,1,7.238,1.092,10.914,10.914,0,0,1,4.869,3.341l.006.007a12.559,12.559,0,0,1,2.32,6.18Zm174.8-26.44a42.528,42.528,0,0,1,18.156,3.782,30.492,30.492,0,0,1,7.409,4.9A34.746,34.746,0,0,1,656.3,209.3h0a40.917,40.917,0,0,1,6.154,16.677,107.416,107.416,0,0,1,.664,15.9l-.007.493h-54.61a26.561,26.561,0,0,0,2.04,9.513,15.023,15.023,0,0,0,5.263,6.419,18.867,18.867,0,0,0,15.8,2.029,12.937,12.937,0,0,0,4.461-2.645,16.985,16.985,0,0,0,3.767-5.339l.136-.284h22.188l-.063.556a21.4,21.4,0,0,1-2.3,7.331,35.227,35.227,0,0,1-5.215,7.372h0a33.058,33.058,0,0,1-12.492,8.867,44.06,44.06,0,0,1-16.594,2.948,40.985,40.985,0,0,1-27.2-9.932,30.433,30.433,0,0,1-8.882-13.1,56.429,56.429,0,0,1-2.942-19.214,59.074,59.074,0,0,1,2.653-18.467,36.01,36.01,0,0,1,7.995-13.664,34.948,34.948,0,0,1,12.25-8.414A40.824,40.824,0,0,1,624.756,193.542Zm37.373,47.827a104.3,104.3,0,0,0-.66-15.248,39.922,39.922,0,0,0-6-16.277l0,0a33.741,33.741,0,0,0-5.809-6.875,29.489,29.489,0,0,0-7.166-4.736,41.538,41.538,0,0,0-17.732-3.688,39.829,39.829,0,0,0-15.019,2.728,33.954,33.954,0,0,0-11.9,8.176,35.022,35.022,0,0,0-7.77,13.289,58.082,58.082,0,0,0-2.6,18.153,55.445,55.445,0,0,0,2.881,18.872,29.447,29.447,0,0,0,8.587,12.68,39.986,39.986,0,0,0,26.558,9.7,43.069,43.069,0,0,0,16.218-2.875,32.065,32.065,0,0,0,12.117-8.6l0,0a34.243,34.243,0,0,0,5.072-7.163,20.725,20.725,0,0,0,2.128-6.431H640.6a17.675,17.675,0,0,1-3.86,5.365,15.516,15.516,0,0,1-10.808,3.79,18.337,18.337,0,0,1-10.686-3.092,16,16,0,0,1-5.609-6.835,28.031,28.031,0,0,1-2.149-10.4l-.019-.518ZM41.162,193.762a57.457,57.457,0,0,1,12.487,1.312,46.553,46.553,0,0,1,11.031,3.943,17.711,17.711,0,0,1,7.852,7.722,26.726,26.726,0,0,1,2.6,12.352v36.621c0,2.522.049,5.62.146,9.207.141,2.624.529,4.407,1.155,5.3a7.031,7.031,0,0,0,2.877,2.25l.289.134v3.9H56.056l-.125-.317a23.857,23.857,0,0,1-1.346-4.639c-.194-1.128-.36-2.392-.493-3.769a43.72,43.72,0,0,1-9.309,7.265A30.593,30.593,0,0,1,29.3,278.99a30.775,30.775,0,0,1-10.06-1.575,24.5,24.5,0,0,1-8.177-4.738,20.064,20.064,0,0,1-5.435-7.669,30.168,30.168,0,0,1,1.094-23.173,22.312,22.312,0,0,1,8.7-8.822c4.19-2.415,10.414-4.162,18.5-5.191l7.106-.879a32.318,32.318,0,0,0,8.136-1.792l.006,0c2.8-1.194,4.164-2.984,4.164-5.473a8.719,8.719,0,0,0-.8-3.923,5.567,5.567,0,0,0-2.348-2.414c-2.185-1.2-5.468-1.806-9.757-1.806a18.831,18.831,0,0,0-6.152.888,8.837,8.837,0,0,0-3.937,2.594A14.811,14.811,0,0,0,27.52,222.1l-.067.422H6.352l.034-.531a37.35,37.35,0,0,1,1.82-9.67,26.963,26.963,0,0,1,4.142-7.816,25.521,25.521,0,0,1,11.465-8.073A50.241,50.241,0,0,1,41.162,193.762ZM78.6,273.238a7.814,7.814,0,0,1-2.986-2.444c-.745-1.065-1.182-2.97-1.335-5.826v-.013c-.1-3.6-.147-6.709-.147-9.242V219.091A25.75,25.75,0,0,0,71.645,207.2a16.73,16.73,0,0,0-7.419-7.292,45.551,45.551,0,0,0-10.795-3.858,56.467,56.467,0,0,0-12.269-1.288,49.261,49.261,0,0,0-17,2.605,24.535,24.535,0,0,0-11.023,7.75,25.96,25.96,0,0,0-3.985,7.525,35.948,35.948,0,0,0-1.732,8.879H26.6a15.459,15.459,0,0,1,2.964-7.139l.005-.007a9.819,9.819,0,0,1,4.374-2.9,19.814,19.814,0,0,1,6.482-.944c4.459,0,7.9.649,10.238,1.929,2.432,1.334,3.665,3.761,3.665,7.213,0,2.892-1.6,5.043-4.771,6.392a32.718,32.718,0,0,1-8.41,1.867l-7.106.879c-7.951,1.012-14.049,2.716-18.122,5.064A21.325,21.325,0,0,0,7.6,242.306a29.18,29.18,0,0,0-1.049,22.329,19.072,19.072,0,0,0,5.167,7.29,23.5,23.5,0,0,0,7.845,4.545,29.781,29.781,0,0,0,9.733,1.52,32.171,32.171,0,0,0,7.933-.955,27.944,27.944,0,0,0,7.052-2.86,42.587,42.587,0,0,0,9.843-7.889l.774-.839.092,1.138c.145,1.783.34,3.395.58,4.789a22.437,22.437,0,0,0,1.168,4.126H78.6Zm291.125-79.476c.4,0,.752.013,1.034.039.263.024.86.06,1.776.109l.474.025v22.42l-.555-.062c-1.3-.145-2.473-.242-3.484-.29s-1.842-.073-2.466-.073a23.674,23.674,0,0,0-10.31,2,13.445,13.445,0,0,0-6.166,5.935c-1.565,2.988-2.359,7.691-2.359,13.976V276.5H325.647V195.666h20.922V208.32c2.86-4.544,5.415-7.748,7.606-9.537a20.449,20.449,0,0,1,6.9-3.77A28.249,28.249,0,0,1,369.727,193.762Zm2.283,1.12c-.665-.037-1.114-.065-1.34-.086-.252-.023-.57-.035-.944-.035a27.253,27.253,0,0,0-8.343,1.2,19.455,19.455,0,0,0-6.571,3.588l0,0c-2.337,1.908-5.133,5.536-8.311,10.785l-.928,1.532V196.666H326.647V275.5h20.021V237.841c0-6.448.832-11.307,2.474-14.441a14.425,14.425,0,0,1,6.615-6.37,24.648,24.648,0,0,1,10.747-2.1c.64,0,1.486.025,2.514.074.886.042,1.89.121,2.992.236Zm-279.932.784h22.387v48.62c0,4.446.526,7.825,1.564,10.042a9.285,9.285,0,0,0,4.015,4.332,14.073,14.073,0,0,0,6.738,1.459,17.048,17.048,0,0,0,8.755-2.091,13.623,13.623,0,0,0,5.438-6.258c1.331-3.046,2.006-7.141,2.006-12.172V195.666h22.167V276.5H143.86V266.344c-.155.238-.335.517-.544.843a15.271,15.271,0,0,1-2.871,3.326,29.693,29.693,0,0,1-9.652,6.1,32.969,32.969,0,0,1-10.9,1.64c-5.964,0-11.033-1.092-15.067-3.245a21.294,21.294,0,0,1-9.26-9.782,32.307,32.307,0,0,1-2.625-8.833,75.05,75.05,0,0,1-.867-12.112Zm21.387,1H93.078v47.62c0,9.011,1.141,15.911,3.391,20.508a21.488,21.488,0,0,0,3.714,5.452,19.964,19.964,0,0,0,5.118,3.885c3.888,2.075,8.8,3.127,14.6,3.127a31.984,31.984,0,0,0,10.564-1.583,28.717,28.717,0,0,0,9.317-5.907l.007-.006a14.277,14.277,0,0,0,2.689-3.114c.8-1.247,1.287-1.98,1.5-2.24l.89-1.113v12.2h19.288V196.666H143.981V239.6c0,5.172-.7,9.4-2.093,12.578l0,.008a14.6,14.6,0,0,1-5.84,6.7,18.025,18.025,0,0,1-9.263,2.23c-5.751,0-9.674-2.142-11.659-6.366-1.1-2.352-1.659-5.873-1.659-10.467Zm437.915-1h22.167V276.5H551.38Zm21.167,1H552.38V275.5h20.167Zm-301.99,14.088a19.723,19.723,0,0,1,8.3,1.666,16.179,16.179,0,0,1,6.159,5.014,22.982,22.982,0,0,1,3.765,8.038,47.191,47.191,0,0,1,0,21.524,23.178,23.178,0,0,1-3.764,8.065,16.2,16.2,0,0,1-6.158,5.042,21.43,21.43,0,0,1-16.616,0,16.326,16.326,0,0,1-6.185-5.041A23.1,23.1,0,0,1,252.266,247a46.856,46.856,0,0,1,0-21.526,22.912,22.912,0,0,1,3.793-8.038,16.309,16.309,0,0,1,6.185-5.012A19.785,19.785,0,0,1,270.557,210.754Zm0,50.024a18.641,18.641,0,0,0,7.883-1.583,15.209,15.209,0,0,0,5.78-4.736,22.186,22.186,0,0,0,3.6-7.719,46.208,46.208,0,0,0,0-21.011,21.994,21.994,0,0,0-3.6-7.691,15.192,15.192,0,0,0-5.78-4.709,20.548,20.548,0,0,0-15.778,0,15.318,15.318,0,0,0-5.808,4.71,21.92,21.92,0,0,0-3.622,7.69,45.871,45.871,0,0,0,0,21.01,22.111,22.111,0,0,0,3.623,7.719,15.337,15.337,0,0,0,5.808,4.737A18.7,18.7,0,0,0,270.557,260.778Zm354.2-50.024a16.131,16.131,0,0,1,11.514,4.422,15.26,15.26,0,0,1,3.626,5.459,24.105,24.105,0,0,1,1.545,7.433l.033.531H607.926l.075-.566c.694-5.252,2.422-9.481,5.137-12.569C615.885,212.339,619.794,210.754,624.756,210.754Zm15.65,16.846a22.641,22.641,0,0,0-1.438-6.593,14.266,14.266,0,0,0-3.387-5.106,14.7,14.7,0,0,0-4.879-3.109,17.934,17.934,0,0,0-12.195.061,12.153,12.153,0,0,0-4.618,3.272c-2.485,2.827-4.1,6.685-4.818,11.475ZM54.26,236.276v8.68a25.43,25.43,0,0,1-1.621,9.023,12.784,12.784,0,0,1-4.489,5.806,21.845,21.845,0,0,1-12.7,4.045,11.443,11.443,0,0,1-7.491-2.527c-2.116-1.655-3.19-4.374-3.19-8.08a10.083,10.083,0,0,1,5.08-9.293c1.947-1.148,5.182-2.13,9.615-2.918l4.683-.878a33.088,33.088,0,0,0,5.444-1.4,22.292,22.292,0,0,0,3.9-1.97Zm-1,8.664v-6.871a22.782,22.782,0,0,1-3.313,1.594,34.026,34.026,0,0,1-5.616,1.452l-4.688.879c-4.32.768-7.443,1.708-9.286,2.8a9.074,9.074,0,0,0-3.44,3.452,10.293,10.293,0,0,0-1.148,4.979,12.2,12.2,0,0,0,.716,4.414,6.65,6.65,0,0,0,2.094,2.882l.011.009a10.468,10.468,0,0,0,6.859,2.3,20.791,20.791,0,0,0,6.321-.965,21.706,21.706,0,0,0,5.808-2.9,11.805,11.805,0,0,0,4.135-5.364A24.445,24.445,0,0,0,53.26,244.939Z" transform="translate(-6.882 827.111) rotate(-90)" fill="#f8f5f4" opacity="0.102"/>
</svg>
